<?xml version="1.0" encoding="UTF-8"?>
<svg id="Layer_1" data-name="Layer 1" xmlns="http://www.w3.org/2000/svg" viewBox="0 0 100 100">
  <defs>
    <style>
      .cls-1 {
        fill: #fff;
      }

      .cls-2 {
        fill: #f2f2f3;
        font-family: MyriadPro-Regular, 'Myriad Pro';
        font-size: 25px;
      }

      .cls-3 {
        fill: #191919;
      }
    </style>
  </defs>
  <g>
    <rect class="cls-3" x=".13" y=".12" width="49.75" height="49.75"/>
    <path class="cls-1" d="m49.75.25v49.5H.25V.25h49.5m.25-.25H0v50h50V0h0Z"/>
  </g>
  <text class="cls-2" transform="translate(18.59 32.34)"><tspan x="0" y="0">1</tspan></text>
  <g>
    <rect class="cls-3" x="50.12" y=".13" width="49.75" height="49.75"/>
    <path class="cls-1" d="m99.75.25v49.5h-49.5V.25h49.5M100,0h-50v50h50V0h0Z"/>
  </g>
  <text class="cls-2" transform="translate(68.59 32.34)"><tspan x="0" y="0">2</tspan></text>
  <g>
    <rect class="cls-3" x=".12" y="50.19" width="49.75" height="49.75"/>
    <path class="cls-1" d="m49.75,50.31v49.5H.25v-49.5h49.5m.25-.25H0v50h50v-50h0Z"/>
  </g>
  <text class="cls-2" transform="translate(18.59 82.4)"><tspan x="0" y="0">3</tspan></text>
  <g>
    <rect class="cls-3" x="50.12" y="50.19" width="49.75" height="49.75"/>
    <path class="cls-1" d="m99.75,50.31v49.5h-49.5v-49.5h49.5m.25-.25h-50v50h50v-50h0Z"/>
  </g>
  <text class="cls-2" transform="translate(68.59 82.4)"><tspan x="0" y="0">4</tspan></text>
</svg>